<?xml version="1.0" encoding="utf-8"?>
<!-- Svg Vector Icons : http://www.onlinewebfonts.com/icon -->
<!DOCTYPE svg PUBLIC "-//W3C//DTD SVG 1.1//EN" "http://www.w3.org/Graphics/SVG/1.1/DTD/svg11.dtd">
<svg version="1.1" xmlns="http://www.w3.org/2000/svg" xmlns:xlink="http://www.w3.org/1999/xlink" x="0px" y="0px" viewBox="0 0 1000 1000" enable-background="new 0 0 1000 1000" xml:space="preserve">
<metadata> Svg Vector Icons : http://www.onlinewebfonts.com/icon </metadata>
<g><g transform="translate(0.000000,511.000000) scale(0.100000,-0.100000)"><path d="M4914.3,4996.9c-42.8-19.1-3535.3-3375.8-4132.8-3975.7C569.6,809.3,548.2,780.7,548.2,699.8c0-214.3,80.9-252.4,547.6-252.4h357.1v-2509.2c0-1573.6,9.5-2533,23.8-2571.1c11.9-33.3,57.1-83.3,100-109.5C1655.2-4790,1698-4790,5000-4790c3302,0,3344.8,0,3423.4,47.6c42.8,26.2,88.1,76.2,100,109.5c14.3,38.1,23.8,997.5,23.8,2571.1V447.4h357.1c466.6,0,547.5,38.1,547.5,252.4c0,80.9-21.4,109.5-242.8,330.9c-204.7,204.7-3761.4,3640-4018.5,3882.9C5100,4999.2,4995.2,5030.2,4914.3,4996.9z M6821.2,2680.5l1804.5-1745l-219-11.9c-204.7-11.9-223.8-16.7-278.5-78.6l-57.1-66.7V-1769v-2544.9H5000h-3071V-1769V778.3l-57.1,66.7c-54.8,61.9-73.8,66.7-278.5,78.6l-219,11.9l1802.1,1745c992.7,957,1814.1,1742.6,1823.6,1742.6S5830.9,3637.5,6821.2,2680.5z"/></g></g>
</svg>