<?xml version="1.0" encoding="utf-8"?>
<!-- Svg Vector Icons : http://www.onlinewebfonts.com/icon -->
<!DOCTYPE svg PUBLIC "-//W3C//DTD SVG 1.1//EN" "http://www.w3.org/Graphics/SVG/1.1/DTD/svg11.dtd">
<svg version="1.1" xmlns="http://www.w3.org/2000/svg" xmlns:xlink="http://www.w3.org/1999/xlink" x="0px" y="0px" viewBox="0 0 1000 1000" enable-background="new 0 0 1000 1000" xml:space="preserve">
<metadata> Svg Vector Icons : http://www.onlinewebfonts.com/icon </metadata>
<g><g transform="translate(0.000000,511.000000) scale(0.100000,-0.100000)"><path d="M2544.6,2507.6L100,55.1l415.6-415.6l415.6-415.6l2032.9,2032.9L4999,3291.7l2034.9-2034.9L9066.8-776.1l415.6,415.6L9900,57.1L7453.4,2501.7C6108.6,3848.5,5004.9,4952.2,4999,4956.1C4993.1,4958.1,3889.4,3858.3,2544.6,2507.6z"/><path d="M6763.4,4273.9v-380.3l562.6-605.8c307.8-331.3,639.1-686.1,735.1-788.1l172.5-186.2v1170.4v1170.4h-735.2h-735.1V4273.9z"/><path d="M3081.8,847.1L1180.2-1021.1l-2-1856.5l-2-1858.4h1274.3h1274.3v1636.9v1636.9h1293.9h1293.9v-1636.9v-1636.9h1254.7h1254.6v1848.7v1846.7L6918.3,831.4C5869.4,1860.6,5006.9,2705.6,4999,2709.5C4989.2,2713.4,4126.6,1874.4,3081.8,847.1z"/></g></g>
</svg>